<mxfile host="app.diagrams.net" modified="2023-06-27T08:45:56.208Z" agent="Mozilla/5.0 (Windows NT 10.0; Win64; x64) AppleWebKit/537.36 (KHTML, like Gecko) Chrome/114.0.0.0 Safari/537.36" etag="KOdRMiJPeOX-unMJJPOR" version="21.5.1" type="device">
  <diagram name="페이지-1" id="l07pGsT3LArnL1yRGrHf">
    <mxGraphModel dx="1509" dy="744" grid="1" gridSize="10" guides="1" tooltips="1" connect="1" arrows="1" fold="1" page="1" pageScale="1" pageWidth="900" pageHeight="1600" math="0" shadow="0">
      <root>
        <mxCell id="0" />
        <mxCell id="1" parent="0" />
        <mxCell id="H3a5DtDay9lXyqPD7_JK-2" value="&amp;nbsp; &amp;nbsp; &amp;nbsp; &amp;nbsp; &amp;nbsp; &amp;nbsp;가위바위보 게임 !!!&amp;nbsp;" style="swimlane;whiteSpace=wrap;html=1;startSize=30;align=left;" vertex="1" parent="1">
          <mxGeometry x="40" y="40" width="800" height="600" as="geometry" />
        </mxCell>
        <mxCell id="H3a5DtDay9lXyqPD7_JK-3" value="" style="rounded=0;whiteSpace=wrap;html=1;" vertex="1" parent="H3a5DtDay9lXyqPD7_JK-2">
          <mxGeometry y="30" width="800" height="570" as="geometry" />
        </mxCell>
        <mxCell id="H3a5DtDay9lXyqPD7_JK-14" value="" style="endArrow=classic;html=1;rounded=0;exitX=0;exitY=1;exitDx=0;exitDy=0;entryX=1;entryY=1;entryDx=0;entryDy=0;" edge="1" parent="H3a5DtDay9lXyqPD7_JK-2">
          <mxGeometry relative="1" as="geometry">
            <mxPoint y="620" as="sourcePoint" />
            <mxPoint x="800" y="620" as="targetPoint" />
          </mxGeometry>
        </mxCell>
        <mxCell id="H3a5DtDay9lXyqPD7_JK-15" value="800px" style="edgeLabel;resizable=0;html=1;align=center;verticalAlign=middle;fontSize=13;" connectable="0" vertex="1" parent="H3a5DtDay9lXyqPD7_JK-14">
          <mxGeometry relative="1" as="geometry" />
        </mxCell>
        <mxCell id="H3a5DtDay9lXyqPD7_JK-19" value="&amp;nbsp;X" style="rounded=0;whiteSpace=wrap;html=1;verticalAlign=middle;fontSize=13;align=left;" vertex="1" parent="H3a5DtDay9lXyqPD7_JK-2">
          <mxGeometry x="775" y="5" width="20" height="20" as="geometry" />
        </mxCell>
        <mxCell id="H3a5DtDay9lXyqPD7_JK-20" value="" style="rounded=0;whiteSpace=wrap;html=1;fontSize=14;verticalAlign=bottom;" vertex="1" parent="H3a5DtDay9lXyqPD7_JK-2">
          <mxGeometry x="725" y="5" width="20" height="20" as="geometry" />
        </mxCell>
        <mxCell id="H3a5DtDay9lXyqPD7_JK-21" value="" style="rounded=0;whiteSpace=wrap;html=1;" vertex="1" parent="H3a5DtDay9lXyqPD7_JK-2">
          <mxGeometry x="750" y="5" width="20" height="20" as="geometry" />
        </mxCell>
        <mxCell id="H3a5DtDay9lXyqPD7_JK-22" value="" style="rounded=0;whiteSpace=wrap;html=1;" vertex="1" parent="H3a5DtDay9lXyqPD7_JK-2">
          <mxGeometry x="755" y="10" width="10" height="10" as="geometry" />
        </mxCell>
        <mxCell id="H3a5DtDay9lXyqPD7_JK-23" value="" style="endArrow=none;html=1;rounded=0;" edge="1" parent="H3a5DtDay9lXyqPD7_JK-2">
          <mxGeometry width="50" height="50" relative="1" as="geometry">
            <mxPoint x="730" y="15" as="sourcePoint" />
            <mxPoint x="740" y="15" as="targetPoint" />
          </mxGeometry>
        </mxCell>
        <mxCell id="H3a5DtDay9lXyqPD7_JK-60" value="penel 1" style="text;html=1;strokeColor=none;fillColor=none;align=center;verticalAlign=middle;whiteSpace=wrap;rounded=0;" vertex="1" parent="H3a5DtDay9lXyqPD7_JK-2">
          <mxGeometry y="30" width="60" height="30" as="geometry" />
        </mxCell>
        <mxCell id="H3a5DtDay9lXyqPD7_JK-9" value="" style="endArrow=classic;html=1;rounded=1;" edge="1" parent="1">
          <mxGeometry relative="1" as="geometry">
            <mxPoint x="860" y="70" as="sourcePoint" />
            <mxPoint x="860" y="40" as="targetPoint" />
          </mxGeometry>
        </mxCell>
        <mxCell id="H3a5DtDay9lXyqPD7_JK-10" value="30px" style="edgeLabel;resizable=0;html=1;align=center;verticalAlign=middle;fontSize=13;" connectable="0" vertex="1" parent="H3a5DtDay9lXyqPD7_JK-9">
          <mxGeometry relative="1" as="geometry" />
        </mxCell>
        <mxCell id="H3a5DtDay9lXyqPD7_JK-11" value="" style="endArrow=none;dashed=1;html=1;dashPattern=1 3;strokeWidth=2;rounded=0;entryX=1;entryY=0;entryDx=0;entryDy=0;" edge="1" parent="1" target="H3a5DtDay9lXyqPD7_JK-3">
          <mxGeometry width="50" height="50" relative="1" as="geometry">
            <mxPoint x="860" y="70" as="sourcePoint" />
            <mxPoint x="550" y="400" as="targetPoint" />
          </mxGeometry>
        </mxCell>
        <mxCell id="H3a5DtDay9lXyqPD7_JK-12" value="" style="endArrow=none;dashed=1;html=1;dashPattern=1 3;strokeWidth=2;rounded=0;entryX=1;entryY=0;entryDx=0;entryDy=0;" edge="1" parent="1">
          <mxGeometry width="50" height="50" relative="1" as="geometry">
            <mxPoint x="860" y="40" as="sourcePoint" />
            <mxPoint x="840" y="38.95" as="targetPoint" />
          </mxGeometry>
        </mxCell>
        <mxCell id="H3a5DtDay9lXyqPD7_JK-5" value="" style="endArrow=classic;html=1;rounded=1;entryX=1;entryY=0;entryDx=0;entryDy=0;exitX=1;exitY=1;exitDx=0;exitDy=0;" edge="1" parent="1">
          <mxGeometry relative="1" as="geometry">
            <mxPoint x="860.0000000000005" y="639.9999999999998" as="sourcePoint" />
            <mxPoint x="860.0000000000005" y="70.00000000000023" as="targetPoint" />
            <Array as="points">
              <mxPoint x="860" y="360" />
            </Array>
          </mxGeometry>
        </mxCell>
        <mxCell id="H3a5DtDay9lXyqPD7_JK-6" value="570px" style="edgeLabel;resizable=0;html=1;align=center;verticalAlign=middle;fontSize=13;" connectable="0" vertex="1" parent="H3a5DtDay9lXyqPD7_JK-5">
          <mxGeometry relative="1" as="geometry" />
        </mxCell>
        <mxCell id="H3a5DtDay9lXyqPD7_JK-13" value="" style="endArrow=none;dashed=1;html=1;dashPattern=1 3;strokeWidth=2;rounded=0;exitX=1;exitY=1;exitDx=0;exitDy=0;" edge="1" parent="1" source="H3a5DtDay9lXyqPD7_JK-3">
          <mxGeometry width="50" height="50" relative="1" as="geometry">
            <mxPoint x="840" y="630" as="sourcePoint" />
            <mxPoint x="860" y="640" as="targetPoint" />
          </mxGeometry>
        </mxCell>
        <mxCell id="H3a5DtDay9lXyqPD7_JK-17" value="" style="endArrow=none;dashed=1;html=1;dashPattern=1 3;strokeWidth=2;rounded=0;entryX=0;entryY=1;entryDx=0;entryDy=0;" edge="1" parent="1" target="H3a5DtDay9lXyqPD7_JK-2">
          <mxGeometry width="50" height="50" relative="1" as="geometry">
            <mxPoint x="40" y="660" as="sourcePoint" />
            <mxPoint x="510" y="240" as="targetPoint" />
          </mxGeometry>
        </mxCell>
        <mxCell id="H3a5DtDay9lXyqPD7_JK-18" value="" style="endArrow=none;dashed=1;html=1;dashPattern=1 3;strokeWidth=2;rounded=0;entryX=1;entryY=1;entryDx=0;entryDy=0;" edge="1" parent="1" target="H3a5DtDay9lXyqPD7_JK-3">
          <mxGeometry width="50" height="50" relative="1" as="geometry">
            <mxPoint x="840" y="660" as="sourcePoint" />
            <mxPoint x="510" y="450" as="targetPoint" />
          </mxGeometry>
        </mxCell>
        <mxCell id="H3a5DtDay9lXyqPD7_JK-42" value="&amp;nbsp; &amp;nbsp; &amp;nbsp; &amp;nbsp; &amp;nbsp; &amp;nbsp;가위바위보 게임 !!!" style="swimlane;whiteSpace=wrap;html=1;startSize=30;align=left;" vertex="1" parent="1">
          <mxGeometry x="40" y="721.05" width="800" height="600" as="geometry" />
        </mxCell>
        <mxCell id="H3a5DtDay9lXyqPD7_JK-43" value="" style="rounded=0;whiteSpace=wrap;html=1;" vertex="1" parent="H3a5DtDay9lXyqPD7_JK-42">
          <mxGeometry y="30" width="800" height="570" as="geometry" />
        </mxCell>
        <mxCell id="H3a5DtDay9lXyqPD7_JK-44" value="" style="endArrow=classic;html=1;rounded=0;exitX=0;exitY=1;exitDx=0;exitDy=0;entryX=1;entryY=1;entryDx=0;entryDy=0;" edge="1" parent="H3a5DtDay9lXyqPD7_JK-42">
          <mxGeometry relative="1" as="geometry">
            <mxPoint y="620" as="sourcePoint" />
            <mxPoint x="800" y="620" as="targetPoint" />
          </mxGeometry>
        </mxCell>
        <mxCell id="H3a5DtDay9lXyqPD7_JK-45" value="800px" style="edgeLabel;resizable=0;html=1;align=center;verticalAlign=middle;fontSize=13;" connectable="0" vertex="1" parent="H3a5DtDay9lXyqPD7_JK-44">
          <mxGeometry relative="1" as="geometry" />
        </mxCell>
        <mxCell id="H3a5DtDay9lXyqPD7_JK-46" value="&amp;nbsp;X" style="rounded=0;whiteSpace=wrap;html=1;verticalAlign=middle;fontSize=13;align=left;" vertex="1" parent="H3a5DtDay9lXyqPD7_JK-42">
          <mxGeometry x="775" y="5" width="20" height="20" as="geometry" />
        </mxCell>
        <mxCell id="H3a5DtDay9lXyqPD7_JK-47" value="" style="rounded=0;whiteSpace=wrap;html=1;fontSize=14;verticalAlign=bottom;" vertex="1" parent="H3a5DtDay9lXyqPD7_JK-42">
          <mxGeometry x="725" y="5" width="20" height="20" as="geometry" />
        </mxCell>
        <mxCell id="H3a5DtDay9lXyqPD7_JK-48" value="" style="rounded=0;whiteSpace=wrap;html=1;" vertex="1" parent="H3a5DtDay9lXyqPD7_JK-42">
          <mxGeometry x="750" y="5" width="20" height="20" as="geometry" />
        </mxCell>
        <mxCell id="H3a5DtDay9lXyqPD7_JK-49" value="" style="rounded=0;whiteSpace=wrap;html=1;" vertex="1" parent="H3a5DtDay9lXyqPD7_JK-42">
          <mxGeometry x="755" y="10" width="10" height="10" as="geometry" />
        </mxCell>
        <mxCell id="H3a5DtDay9lXyqPD7_JK-50" value="" style="endArrow=none;html=1;rounded=0;" edge="1" parent="H3a5DtDay9lXyqPD7_JK-42">
          <mxGeometry width="50" height="50" relative="1" as="geometry">
            <mxPoint x="730" y="15" as="sourcePoint" />
            <mxPoint x="740" y="15" as="targetPoint" />
          </mxGeometry>
        </mxCell>
        <mxCell id="H3a5DtDay9lXyqPD7_JK-61" value="penel 2" style="text;html=1;strokeColor=none;fillColor=none;align=center;verticalAlign=middle;whiteSpace=wrap;rounded=0;" vertex="1" parent="H3a5DtDay9lXyqPD7_JK-42">
          <mxGeometry y="30" width="60" height="30" as="geometry" />
        </mxCell>
        <mxCell id="H3a5DtDay9lXyqPD7_JK-51" value="" style="endArrow=classic;html=1;rounded=1;" edge="1" parent="1">
          <mxGeometry relative="1" as="geometry">
            <mxPoint x="860" y="751.05" as="sourcePoint" />
            <mxPoint x="860" y="721.05" as="targetPoint" />
          </mxGeometry>
        </mxCell>
        <mxCell id="H3a5DtDay9lXyqPD7_JK-52" value="30px" style="edgeLabel;resizable=0;html=1;align=center;verticalAlign=middle;fontSize=13;" connectable="0" vertex="1" parent="H3a5DtDay9lXyqPD7_JK-51">
          <mxGeometry relative="1" as="geometry" />
        </mxCell>
        <mxCell id="H3a5DtDay9lXyqPD7_JK-53" value="" style="endArrow=none;dashed=1;html=1;dashPattern=1 3;strokeWidth=2;rounded=0;entryX=1;entryY=0;entryDx=0;entryDy=0;" edge="1" target="H3a5DtDay9lXyqPD7_JK-43" parent="1">
          <mxGeometry width="50" height="50" relative="1" as="geometry">
            <mxPoint x="860" y="751.05" as="sourcePoint" />
            <mxPoint x="550" y="1081.05" as="targetPoint" />
          </mxGeometry>
        </mxCell>
        <mxCell id="H3a5DtDay9lXyqPD7_JK-54" value="" style="endArrow=none;dashed=1;html=1;dashPattern=1 3;strokeWidth=2;rounded=0;entryX=1;entryY=0;entryDx=0;entryDy=0;" edge="1" parent="1">
          <mxGeometry width="50" height="50" relative="1" as="geometry">
            <mxPoint x="860" y="721.05" as="sourcePoint" />
            <mxPoint x="840" y="720" as="targetPoint" />
          </mxGeometry>
        </mxCell>
        <mxCell id="H3a5DtDay9lXyqPD7_JK-55" value="" style="endArrow=classic;html=1;rounded=1;entryX=1;entryY=0;entryDx=0;entryDy=0;exitX=1;exitY=1;exitDx=0;exitDy=0;" edge="1" parent="1">
          <mxGeometry relative="1" as="geometry">
            <mxPoint x="860.0000000000005" y="1321.0499999999997" as="sourcePoint" />
            <mxPoint x="860.0000000000005" y="751.0500000000002" as="targetPoint" />
            <Array as="points">
              <mxPoint x="860" y="1041.05" />
            </Array>
          </mxGeometry>
        </mxCell>
        <mxCell id="H3a5DtDay9lXyqPD7_JK-56" value="570px" style="edgeLabel;resizable=0;html=1;align=center;verticalAlign=middle;fontSize=13;" connectable="0" vertex="1" parent="H3a5DtDay9lXyqPD7_JK-55">
          <mxGeometry relative="1" as="geometry" />
        </mxCell>
        <mxCell id="H3a5DtDay9lXyqPD7_JK-57" value="" style="endArrow=none;dashed=1;html=1;dashPattern=1 3;strokeWidth=2;rounded=0;exitX=1;exitY=1;exitDx=0;exitDy=0;" edge="1" source="H3a5DtDay9lXyqPD7_JK-43" parent="1">
          <mxGeometry width="50" height="50" relative="1" as="geometry">
            <mxPoint x="840" y="1311.05" as="sourcePoint" />
            <mxPoint x="860" y="1321.05" as="targetPoint" />
          </mxGeometry>
        </mxCell>
        <mxCell id="H3a5DtDay9lXyqPD7_JK-58" value="" style="endArrow=none;dashed=1;html=1;dashPattern=1 3;strokeWidth=2;rounded=0;entryX=0;entryY=1;entryDx=0;entryDy=0;" edge="1" target="H3a5DtDay9lXyqPD7_JK-42" parent="1">
          <mxGeometry width="50" height="50" relative="1" as="geometry">
            <mxPoint x="40" y="1341.05" as="sourcePoint" />
            <mxPoint x="510" y="921.05" as="targetPoint" />
          </mxGeometry>
        </mxCell>
        <mxCell id="H3a5DtDay9lXyqPD7_JK-59" value="" style="endArrow=none;dashed=1;html=1;dashPattern=1 3;strokeWidth=2;rounded=0;entryX=1;entryY=1;entryDx=0;entryDy=0;" edge="1" target="H3a5DtDay9lXyqPD7_JK-43" parent="1">
          <mxGeometry width="50" height="50" relative="1" as="geometry">
            <mxPoint x="840" y="1341.05" as="sourcePoint" />
            <mxPoint x="510" y="1131.05" as="targetPoint" />
          </mxGeometry>
        </mxCell>
        <mxCell id="H3a5DtDay9lXyqPD7_JK-62" value="&amp;nbsp; &amp;nbsp; &amp;nbsp; &amp;nbsp; &amp;nbsp; &amp;nbsp;가위바위보 게임 !!!" style="swimlane;whiteSpace=wrap;html=1;startSize=30;align=left;" vertex="1" parent="1">
          <mxGeometry x="40" y="1401.05" width="800" height="600" as="geometry" />
        </mxCell>
        <mxCell id="H3a5DtDay9lXyqPD7_JK-63" value="" style="rounded=0;whiteSpace=wrap;html=1;" vertex="1" parent="H3a5DtDay9lXyqPD7_JK-62">
          <mxGeometry y="30" width="800" height="570" as="geometry" />
        </mxCell>
        <mxCell id="H3a5DtDay9lXyqPD7_JK-64" value="" style="endArrow=classic;html=1;rounded=0;exitX=0;exitY=1;exitDx=0;exitDy=0;entryX=1;entryY=1;entryDx=0;entryDy=0;" edge="1" parent="H3a5DtDay9lXyqPD7_JK-62">
          <mxGeometry relative="1" as="geometry">
            <mxPoint y="620" as="sourcePoint" />
            <mxPoint x="800" y="620" as="targetPoint" />
          </mxGeometry>
        </mxCell>
        <mxCell id="H3a5DtDay9lXyqPD7_JK-65" value="800px" style="edgeLabel;resizable=0;html=1;align=center;verticalAlign=middle;fontSize=13;" connectable="0" vertex="1" parent="H3a5DtDay9lXyqPD7_JK-64">
          <mxGeometry relative="1" as="geometry" />
        </mxCell>
        <mxCell id="H3a5DtDay9lXyqPD7_JK-66" value="&amp;nbsp;X" style="rounded=0;whiteSpace=wrap;html=1;verticalAlign=middle;fontSize=13;align=left;" vertex="1" parent="H3a5DtDay9lXyqPD7_JK-62">
          <mxGeometry x="775" y="5" width="20" height="20" as="geometry" />
        </mxCell>
        <mxCell id="H3a5DtDay9lXyqPD7_JK-67" value="" style="rounded=0;whiteSpace=wrap;html=1;fontSize=14;verticalAlign=bottom;" vertex="1" parent="H3a5DtDay9lXyqPD7_JK-62">
          <mxGeometry x="725" y="5" width="20" height="20" as="geometry" />
        </mxCell>
        <mxCell id="H3a5DtDay9lXyqPD7_JK-68" value="" style="rounded=0;whiteSpace=wrap;html=1;" vertex="1" parent="H3a5DtDay9lXyqPD7_JK-62">
          <mxGeometry x="750" y="5" width="20" height="20" as="geometry" />
        </mxCell>
        <mxCell id="H3a5DtDay9lXyqPD7_JK-69" value="" style="rounded=0;whiteSpace=wrap;html=1;" vertex="1" parent="H3a5DtDay9lXyqPD7_JK-62">
          <mxGeometry x="755" y="10" width="10" height="10" as="geometry" />
        </mxCell>
        <mxCell id="H3a5DtDay9lXyqPD7_JK-70" value="" style="endArrow=none;html=1;rounded=0;" edge="1" parent="H3a5DtDay9lXyqPD7_JK-62">
          <mxGeometry width="50" height="50" relative="1" as="geometry">
            <mxPoint x="730" y="15" as="sourcePoint" />
            <mxPoint x="740" y="15" as="targetPoint" />
          </mxGeometry>
        </mxCell>
        <mxCell id="H3a5DtDay9lXyqPD7_JK-71" value="penel 3" style="text;html=1;strokeColor=none;fillColor=none;align=center;verticalAlign=middle;whiteSpace=wrap;rounded=0;" vertex="1" parent="H3a5DtDay9lXyqPD7_JK-62">
          <mxGeometry y="30" width="60" height="30" as="geometry" />
        </mxCell>
        <mxCell id="H3a5DtDay9lXyqPD7_JK-72" value="" style="endArrow=classic;html=1;rounded=1;" edge="1" parent="1">
          <mxGeometry relative="1" as="geometry">
            <mxPoint x="860" y="1431.05" as="sourcePoint" />
            <mxPoint x="860" y="1401.05" as="targetPoint" />
          </mxGeometry>
        </mxCell>
        <mxCell id="H3a5DtDay9lXyqPD7_JK-73" value="30px" style="edgeLabel;resizable=0;html=1;align=center;verticalAlign=middle;fontSize=13;" connectable="0" vertex="1" parent="H3a5DtDay9lXyqPD7_JK-72">
          <mxGeometry relative="1" as="geometry" />
        </mxCell>
        <mxCell id="H3a5DtDay9lXyqPD7_JK-74" value="" style="endArrow=none;dashed=1;html=1;dashPattern=1 3;strokeWidth=2;rounded=0;entryX=1;entryY=0;entryDx=0;entryDy=0;" edge="1" target="H3a5DtDay9lXyqPD7_JK-63" parent="1">
          <mxGeometry width="50" height="50" relative="1" as="geometry">
            <mxPoint x="860" y="1431.05" as="sourcePoint" />
            <mxPoint x="550" y="1761.05" as="targetPoint" />
          </mxGeometry>
        </mxCell>
        <mxCell id="H3a5DtDay9lXyqPD7_JK-75" value="" style="endArrow=none;dashed=1;html=1;dashPattern=1 3;strokeWidth=2;rounded=0;entryX=1;entryY=0;entryDx=0;entryDy=0;" edge="1" parent="1">
          <mxGeometry width="50" height="50" relative="1" as="geometry">
            <mxPoint x="860" y="1401.05" as="sourcePoint" />
            <mxPoint x="840" y="1400" as="targetPoint" />
          </mxGeometry>
        </mxCell>
        <mxCell id="H3a5DtDay9lXyqPD7_JK-76" value="" style="endArrow=classic;html=1;rounded=1;entryX=1;entryY=0;entryDx=0;entryDy=0;exitX=1;exitY=1;exitDx=0;exitDy=0;" edge="1" parent="1">
          <mxGeometry relative="1" as="geometry">
            <mxPoint x="860.0000000000005" y="2001.0499999999997" as="sourcePoint" />
            <mxPoint x="860.0000000000005" y="1431.0500000000002" as="targetPoint" />
            <Array as="points">
              <mxPoint x="860" y="1721.05" />
            </Array>
          </mxGeometry>
        </mxCell>
        <mxCell id="H3a5DtDay9lXyqPD7_JK-77" value="570px" style="edgeLabel;resizable=0;html=1;align=center;verticalAlign=middle;fontSize=13;" connectable="0" vertex="1" parent="H3a5DtDay9lXyqPD7_JK-76">
          <mxGeometry relative="1" as="geometry" />
        </mxCell>
        <mxCell id="H3a5DtDay9lXyqPD7_JK-78" value="" style="endArrow=none;dashed=1;html=1;dashPattern=1 3;strokeWidth=2;rounded=0;exitX=1;exitY=1;exitDx=0;exitDy=0;" edge="1" source="H3a5DtDay9lXyqPD7_JK-63" parent="1">
          <mxGeometry width="50" height="50" relative="1" as="geometry">
            <mxPoint x="840" y="1991.05" as="sourcePoint" />
            <mxPoint x="860" y="2001.05" as="targetPoint" />
          </mxGeometry>
        </mxCell>
        <mxCell id="H3a5DtDay9lXyqPD7_JK-79" value="" style="endArrow=none;dashed=1;html=1;dashPattern=1 3;strokeWidth=2;rounded=0;entryX=0;entryY=1;entryDx=0;entryDy=0;" edge="1" target="H3a5DtDay9lXyqPD7_JK-62" parent="1">
          <mxGeometry width="50" height="50" relative="1" as="geometry">
            <mxPoint x="40" y="2021.05" as="sourcePoint" />
            <mxPoint x="510" y="1601.05" as="targetPoint" />
          </mxGeometry>
        </mxCell>
        <mxCell id="H3a5DtDay9lXyqPD7_JK-80" value="" style="endArrow=none;dashed=1;html=1;dashPattern=1 3;strokeWidth=2;rounded=0;entryX=1;entryY=1;entryDx=0;entryDy=0;" edge="1" target="H3a5DtDay9lXyqPD7_JK-63" parent="1">
          <mxGeometry width="50" height="50" relative="1" as="geometry">
            <mxPoint x="840" y="2021.05" as="sourcePoint" />
            <mxPoint x="510" y="1811.05" as="targetPoint" />
          </mxGeometry>
        </mxCell>
        <mxCell id="H3a5DtDay9lXyqPD7_JK-81" value="&amp;nbsp; &amp;nbsp; &amp;nbsp; &amp;nbsp; &amp;nbsp; &amp;nbsp;가위바위보 게임 !!!" style="swimlane;whiteSpace=wrap;html=1;startSize=30;align=left;" vertex="1" parent="1">
          <mxGeometry x="39" y="2081.05" width="800" height="600" as="geometry" />
        </mxCell>
        <mxCell id="H3a5DtDay9lXyqPD7_JK-82" value="" style="rounded=0;whiteSpace=wrap;html=1;" vertex="1" parent="H3a5DtDay9lXyqPD7_JK-81">
          <mxGeometry y="30" width="800" height="570" as="geometry" />
        </mxCell>
        <mxCell id="H3a5DtDay9lXyqPD7_JK-83" value="" style="endArrow=classic;html=1;rounded=0;exitX=0;exitY=1;exitDx=0;exitDy=0;entryX=1;entryY=1;entryDx=0;entryDy=0;" edge="1" parent="H3a5DtDay9lXyqPD7_JK-81">
          <mxGeometry relative="1" as="geometry">
            <mxPoint y="620" as="sourcePoint" />
            <mxPoint x="800" y="620" as="targetPoint" />
          </mxGeometry>
        </mxCell>
        <mxCell id="H3a5DtDay9lXyqPD7_JK-84" value="800px" style="edgeLabel;resizable=0;html=1;align=center;verticalAlign=middle;fontSize=13;" connectable="0" vertex="1" parent="H3a5DtDay9lXyqPD7_JK-83">
          <mxGeometry relative="1" as="geometry" />
        </mxCell>
        <mxCell id="H3a5DtDay9lXyqPD7_JK-85" value="&amp;nbsp;X" style="rounded=0;whiteSpace=wrap;html=1;verticalAlign=middle;fontSize=13;align=left;" vertex="1" parent="H3a5DtDay9lXyqPD7_JK-81">
          <mxGeometry x="775" y="5" width="20" height="20" as="geometry" />
        </mxCell>
        <mxCell id="H3a5DtDay9lXyqPD7_JK-86" value="" style="rounded=0;whiteSpace=wrap;html=1;fontSize=14;verticalAlign=bottom;" vertex="1" parent="H3a5DtDay9lXyqPD7_JK-81">
          <mxGeometry x="725" y="5" width="20" height="20" as="geometry" />
        </mxCell>
        <mxCell id="H3a5DtDay9lXyqPD7_JK-87" value="" style="rounded=0;whiteSpace=wrap;html=1;" vertex="1" parent="H3a5DtDay9lXyqPD7_JK-81">
          <mxGeometry x="750" y="5" width="20" height="20" as="geometry" />
        </mxCell>
        <mxCell id="H3a5DtDay9lXyqPD7_JK-88" value="" style="rounded=0;whiteSpace=wrap;html=1;" vertex="1" parent="H3a5DtDay9lXyqPD7_JK-81">
          <mxGeometry x="755" y="10" width="10" height="10" as="geometry" />
        </mxCell>
        <mxCell id="H3a5DtDay9lXyqPD7_JK-89" value="" style="endArrow=none;html=1;rounded=0;" edge="1" parent="H3a5DtDay9lXyqPD7_JK-81">
          <mxGeometry width="50" height="50" relative="1" as="geometry">
            <mxPoint x="730" y="15" as="sourcePoint" />
            <mxPoint x="740" y="15" as="targetPoint" />
          </mxGeometry>
        </mxCell>
        <mxCell id="H3a5DtDay9lXyqPD7_JK-90" value="penel 4" style="text;html=1;strokeColor=none;fillColor=none;align=center;verticalAlign=middle;whiteSpace=wrap;rounded=0;" vertex="1" parent="H3a5DtDay9lXyqPD7_JK-81">
          <mxGeometry y="30" width="60" height="30" as="geometry" />
        </mxCell>
        <mxCell id="H3a5DtDay9lXyqPD7_JK-91" value="" style="endArrow=classic;html=1;rounded=1;" edge="1" parent="1">
          <mxGeometry relative="1" as="geometry">
            <mxPoint x="859" y="2111.05" as="sourcePoint" />
            <mxPoint x="859" y="2081.05" as="targetPoint" />
          </mxGeometry>
        </mxCell>
        <mxCell id="H3a5DtDay9lXyqPD7_JK-92" value="30px" style="edgeLabel;resizable=0;html=1;align=center;verticalAlign=middle;fontSize=13;" connectable="0" vertex="1" parent="H3a5DtDay9lXyqPD7_JK-91">
          <mxGeometry relative="1" as="geometry" />
        </mxCell>
        <mxCell id="H3a5DtDay9lXyqPD7_JK-93" value="" style="endArrow=none;dashed=1;html=1;dashPattern=1 3;strokeWidth=2;rounded=0;entryX=1;entryY=0;entryDx=0;entryDy=0;" edge="1" target="H3a5DtDay9lXyqPD7_JK-82" parent="1">
          <mxGeometry width="50" height="50" relative="1" as="geometry">
            <mxPoint x="859" y="2111.05" as="sourcePoint" />
            <mxPoint x="549" y="2441.05" as="targetPoint" />
          </mxGeometry>
        </mxCell>
        <mxCell id="H3a5DtDay9lXyqPD7_JK-94" value="" style="endArrow=none;dashed=1;html=1;dashPattern=1 3;strokeWidth=2;rounded=0;entryX=1;entryY=0;entryDx=0;entryDy=0;" edge="1" parent="1">
          <mxGeometry width="50" height="50" relative="1" as="geometry">
            <mxPoint x="859" y="2081.05" as="sourcePoint" />
            <mxPoint x="839" y="2080" as="targetPoint" />
          </mxGeometry>
        </mxCell>
        <mxCell id="H3a5DtDay9lXyqPD7_JK-95" value="" style="endArrow=classic;html=1;rounded=1;entryX=1;entryY=0;entryDx=0;entryDy=0;exitX=1;exitY=1;exitDx=0;exitDy=0;" edge="1" parent="1">
          <mxGeometry relative="1" as="geometry">
            <mxPoint x="859.0000000000005" y="2681.0499999999997" as="sourcePoint" />
            <mxPoint x="859.0000000000005" y="2111.05" as="targetPoint" />
            <Array as="points">
              <mxPoint x="859" y="2401.05" />
            </Array>
          </mxGeometry>
        </mxCell>
        <mxCell id="H3a5DtDay9lXyqPD7_JK-96" value="570px" style="edgeLabel;resizable=0;html=1;align=center;verticalAlign=middle;fontSize=13;" connectable="0" vertex="1" parent="H3a5DtDay9lXyqPD7_JK-95">
          <mxGeometry relative="1" as="geometry" />
        </mxCell>
        <mxCell id="H3a5DtDay9lXyqPD7_JK-97" value="" style="endArrow=none;dashed=1;html=1;dashPattern=1 3;strokeWidth=2;rounded=0;exitX=1;exitY=1;exitDx=0;exitDy=0;" edge="1" source="H3a5DtDay9lXyqPD7_JK-82" parent="1">
          <mxGeometry width="50" height="50" relative="1" as="geometry">
            <mxPoint x="839" y="2671.05" as="sourcePoint" />
            <mxPoint x="859" y="2681.05" as="targetPoint" />
          </mxGeometry>
        </mxCell>
        <mxCell id="H3a5DtDay9lXyqPD7_JK-98" value="" style="endArrow=none;dashed=1;html=1;dashPattern=1 3;strokeWidth=2;rounded=0;entryX=0;entryY=1;entryDx=0;entryDy=0;" edge="1" target="H3a5DtDay9lXyqPD7_JK-81" parent="1">
          <mxGeometry width="50" height="50" relative="1" as="geometry">
            <mxPoint x="39" y="2701.05" as="sourcePoint" />
            <mxPoint x="509" y="2281.05" as="targetPoint" />
          </mxGeometry>
        </mxCell>
        <mxCell id="H3a5DtDay9lXyqPD7_JK-99" value="" style="endArrow=none;dashed=1;html=1;dashPattern=1 3;strokeWidth=2;rounded=0;entryX=1;entryY=1;entryDx=0;entryDy=0;" edge="1" target="H3a5DtDay9lXyqPD7_JK-82" parent="1">
          <mxGeometry width="50" height="50" relative="1" as="geometry">
            <mxPoint x="839" y="2701.05" as="sourcePoint" />
            <mxPoint x="509" y="2491.05" as="targetPoint" />
          </mxGeometry>
        </mxCell>
      </root>
    </mxGraphModel>
  </diagram>
</mxfile>
